#!OML:ASF F:\VICON\USERDATA\Patient Classification 1\PLAYGROUND\JustinFriday\JustinFriday.ASF
:FULLY-SPECIFIED
:DEGREES
2567
root 14.0552 26.4068 49.0001 364.672 -178.913 6.48772
lowerback 28.7023 2.20308 -0.3694
upperback 12.1057 -0.618609 4.21845
thorax -2.17504 -1.90369 5.09871
lowerneck -31.0466 -12.6824 -10.8275
upperneck -21.9884 -5.17695 17.9394
head -1.13104 1.55997 7.25234
rclavicle -1.28216e-014 3.37934e-015
rhumerus 36.9619 22.9353 -62.9141
rradius 68.3032
rwrist 7.70431
rhand -6.30918 -16.3057
rfingers 7.12502
rthumb 19.5351 -45.3443
lclavicle -1.28216e-014 3.37934e-015
lhumerus 33.8283 -7.17147 75.7632
lradius 31.5988
lwrist -29.9155
lhand -13.689 -15.7654
lfingers 7.12502
lthumb 12.429 13.845
rfemur -26.8261 5.71162 31.66
rtibia 34.0085
rfoot -23.5805 -31.9214
rtoes 8.46602
lfemur -28.4818 4.71482 -10.3373
ltibia 37.9082
lfoot -31.7561 0.0519861
ltoes -7.6684
2568
root 14.0296 26.4332 48.9293 364.718 -178.432 6.3228
lowerback 28.3571 1.98507 -0.227198
upperback 12.0464 -0.807194 4.26219
thorax -2.06487 -1.97074 5.10667
lowerneck -31.7264 -12.5564 -10.552
upperneck -21.1023 -5.28599 17.4282
head -0.81989 1.45488 7.011
rclavicle 2.16675e-014 5.76476e-015
rhumerus 37.1052 22.5737 -62.5019
rradius 71.3442
rwrist 7.01501
rhand -7.25132 -16.057
rfingers 7.12502
rthumb 18.6291 -45.1849
lclavicle 2.16675e-014 5.76476e-015
lhumerus 33.6275 -7.58627 75.9511
lradius 31.1961
lwrist -29.9836
lhand -14.0333 -15.4367
lfingers 7.12502
lthumb 12.097 14.1936
rfemur -26.7394 5.22717 31.4576
rtibia 34.2025
rfoot -23.1669 -31.7369
rtoes 10.5859
lfemur -28.4414 4.48899 -10.5848
ltibia 37.9556
lfoot -31.6757 -0.397355
ltoes -7.69784
2569
root 14.0342 26.4493 48.8535 364.394 -179.667 6.21061
lowerback 28.2425 2.75462 -1.15896
upperback 12.1851 -0.104756 4.3686
thorax -1.92988 -1.69075 5.55625
lowerneck -31.6617 -12.3954 -10.157
upperneck -20.9876 -5.3241 16.7934
head -0.848142 1.36186 6.71907
rclavicle 8.64713e-015 -2.48481e-015
rhumerus 37.5714 22.2589 -61.9671
rradius 74.1265
rwrist 6.18239
rhand -9.50735 -16.6705
rfingers 7.12502
rthumb 16.458 -45.9923
lclavicle 8.64713e-015 -2.48481e-015
lhumerus 33.5082 -8.04635 76.1491
lradius 30.7187
lwrist -30.1614
lhand -14.4947 -15.0048
lfingers 7.12502
lthumb 11.6521 14.6512
rfemur -26.0096 6.12777 31.4044
rtibia 34.3754
rfoot -23.0726 -31.0574
rtoes 12.5904
lfemur -27.4886 5.51136 -10.6213
ltibia 38.0732
lfoot -31.7887 -0.721265
ltoes -7.05438
2570
root 14 26.4762 48.7865 364.339 -178.832 6.08975
lowerback 28.0131 2.33727 -0.676925
upperback 12.1153 -0.469487 4.42263
thorax -1.85998 -1.83417 5.43349
lowerneck -31.3802 -12.2177 -9.74881
upperneck -21.2105 -5.27291 16.0894
head -1.01953 1.32439 6.41472
rclavicle 1.39149e-014 4.57205e-015
rhumerus 38.1183 21.4656 -61.7723
rradius 76.9142
rwrist 6.70832
rhand -7.71513 -16.7114
rfingers 7.12502
rthumb 18.1829 -45.8816
lclavicle 1.39149e-014 4.57205e-015
lhumerus 33.0573 -8.6446 76.1806
lradius 30.6231
lwrist -30.091
lhand -14.9155 -14.3137
lfingers 7.12502
lthumb 11.2462 15.3649
rfemur -25.8349 5.37572 31.2203
rtibia 34.5399
rfoot -23.368 -30.7203
rtoes 14.2972
lfemur -27.4305 4.63746 -10.8001
ltibia 38.1917
lfoot -31.5829 -0.628364
ltoes -7.172
2571
root 13.9918 26.493 48.7152 364.173 -179.501 6.25845
lowerback 27.8588 2.66858 -0.822413
upperback 12.1424 -0.0861136 4.51812
thorax -1.7976 -1.66138 5.50902
lowerneck -31.4545 -12.0693 -9.40136
upperneck -21.1064 -5.24776 15.5004
head -1.03713 1.29104 6.15742
rclavicle -3.47873e-016 -2.7482e-014
rhumerus 38.8637 20.8756 -61.4228
rradius 79.6494
rwrist 6.46969
rhand -9.04217 -16.6602
rfingers 7.12502
rthumb 16.9058 -45.9444
lclavicle -3.47873e-016 -2.7482e-014
lhumerus 32.4611 -9.2474 76.0962
lradius 30.6932
lwrist -29.7899
lhand -15.3638 -13.6502
lfingers 7.12502
lthumb 10.8138 16.0514
rfemur -25.3841 5.71902 31.4468
rtibia 34.6966
rfoot -23.1998 -30.3058
rtoes 15.4269
lfemur -26.8816 5.24505 -10.6117
ltibia 38.337
lfoot -31.6676 -0.422778
ltoes -7.79776
2572
root 13.9849 26.5017 48.6428 363.877 -180.368 6.17232
lowerback 27.6644 -0.913728 -3.38862
upperback 12.5805 1.56408 3.80536
thorax -1.31002 1.88492 5.65812
lowerneck -31.7318 -11.9146 -9.12018
upperneck -20.623 -5.27844 14.9768
head -0.900655 1.21588 5.92673
rclavicle -4.83295e-015 2.78299e-015
rhumerus 39.8242 20.336 -61.0305
rradius 82.3289
rwrist 5.92453
rhand -10.5635 -16.3588
rfingers 7.12502
rthumb 15.441 -45.7621
lclavicle -4.83295e-015 2.78299e-015
lhumerus 32.1486 -9.81116 76.0051
lradius 30.5178
lwrist -29.3959
lhand -15.5888 -13.3278
lfingers 7.12502
lthumb 10.5968 16.385
rfemur -24.8105 6.09333 31.4189
rtibia 34.9053
rfoot -22.6583 -30.064
rtoes 16.322
lfemur -26.1109 5.98877 -10.6972
ltibia 38.4607
lfoot -31.9105 -0.345217
ltoes -8.54657
2573
root 13.9433 26.522 48.5804 364.092 -179.177 5.68519
lowerback 27.2231 2.47146 -0.879277
upperback 12.1197 -0.28655 4.4287
thorax -1.51028 -1.73271 5.47548
lowerneck -31.8176 -11.6292 -8.72137
upperneck -20.4307 -5.11538 14.2637
head -0.910856 1.23517 5.63488
rclavicle -1.69619e-014 3.18087e-014
rhumerus 40.872 19.3403 -60.9422
rradius 84.8196
rwrist 6.83306
rhand -11.457 -15.5776
rfingers 7.12502
rthumb 14.5802 -45.0451
lclavicle -1.69619e-014 3.18087e-014
lhumerus 31.8043 -10.2922 76.0524
lradius 30.3006
lwrist -29.2022
lhand -15.6627 -13.1032
lfingers 7.12502
lthumb 10.5256 16.6133
rfemur -25.031 4.9522 30.8125
rtibia 35.1471
rfoot -22.4269 -30.2403
rtoes 17.3409
lfemur -26.4407 4.94234 -11.3681
ltibia 38.5174
lfoot -31.7507 -0.606794
ltoes -8.8031
2574
root 13.9412 26.5299 48.5246 363.879 -180.185 5.20113
lowerback 27.3137 -0.860716 -3.91975
upperback 12.4126 1.41339 3.66554
thorax -1.30995 1.76222 5.85373
lowerneck -31.7451 -11.2632 -8.17849
upperneck -20.5359 -4.82622 13.4461
head -1.05035 1.32077 5.29837
rclavicle 1.63003e-014 -9.83984e-015
rhumerus 42.21 18.5871 -60.5262
rradius 87.2026
rwrist 6.41543
rhand -13.551 -15.3036
rfingers 7.12502
rthumb 12.562 -44.906
lclavicle 1.63003e-014 -9.83984e-015
lhumerus 31.1952 -10.6957 76.1213
lradius 30.351
lwrist -28.9988
lhand -15.8597 -12.6918
lfingers 7.12502
lthumb 10.3355 17.0343
rfemur -24.5675 5.56798 30.3223
rtibia 35.3591
rfoot -22.4859 -30.1995
rtoes 17.8356
lfemur -25.7277 5.73015 -11.8916
ltibia 38.5669
lfoot -31.7771 -0.67534
ltoes -8.73056
2575
root 13.9186 26.542 48.4643 363.666 -179.938 4.58478
lowerback 27.2868 -0.926003 -4.20108
upperback 12.3819 1.24465 3.53528
thorax -1.30275 1.66812 5.91988
lowerneck -31.8931 -11.0193 -7.91978
upperneck -20.2067 -4.68913 12.9679
head -0.982182 1.33525 5.10725
rclavicle 1.8487e-014 1.19768e-014
rhumerus 43.7343 17.3504 -60.8606
rradius 89.1664
rwrist 9.00158
rhand -11.3229 -13.9142
rfingers 7.12502
rthumb 14.7094 -43.3723
lclavicle 1.8487e-014 1.19768e-014
lhumerus 30.5953 -11.1534 76.1363
lradius 30.4415
lwrist -28.6054
lhand -15.975 -12.2098
lfingers 7.12502
lthumb 10.2243 17.5217
rfemur -24.1393 5.24781 29.6222
rtibia 35.4544
rfoot -22.8852 -30.3294
rtoes 17.9194
lfemur -25.3194 5.33577 -12.6179
ltibia 38.681
lfoot -31.786 -0.519955
ltoes -8.62687
2576
root 13.9052 26.5537 48.3895 363.701 -180.488 4.73418
lowerback 26.6761 -0.726247 -4.10581
upperback 12.3922 1.48876 3.57376
thorax -1.04396 1.76485 5.84511
lowerneck -32.1948 -10.8902 -7.95462
upperneck -19.6114 -4.63787 12.8186
head -0.777276 1.32476 5.06684
rclavicle -7.40473e-015 3.42904e-015
rhumerus 45.8504 17.1625 -60.8009
rradius 90.37
rwrist 8.59253
rhand -15.7843 -14.4178
rfingers 7.12502
rthumb 10.4082 -44.1402
lclavicle -7.40473e-015 3.42904e-015
lhumerus 30.2229 -11.5706 76.2897
lradius 30.2291
lwrist -28.3012
lhand -15.971 -12.266
lfingers 7.12502
lthumb 10.2281 17.4653
rfemur -23.8533 5.65988 29.7476
rtibia 35.4366
rfoot -22.986 -30.2796
rtoes 18.092
lfemur -25.0415 5.78994 -12.4793
ltibia 38.8638
lfoot -31.8339 -0.567002
ltoes -7.72151
2577
root 13.8861 26.5586 48.301 363.83 -180.719 5.9821
lowerback 25.7517 -0.869734 -2.76814
upperback 12.4721 1.61525 3.85555
thorax -0.559708 1.85683 5.35877
lowerneck -32.6332 -10.734 -7.87208
upperneck -18.8593 -4.6196 12.5351
head -0.518465 1.2818 4.95939
rclavicle -6.65929e-015 3.90612e-014
rhumerus 46.8266 15.624 -60.3506
rradius 93.1967
rwrist 8.243
rhand -17.8768 -13.7926
rfingers 7.12502
rthumb 8.38928 -43.606
lclavicle -6.65929e-015 3.90612e-014
lhumerus 26.8205 -11.4862 77.124
lradius 32.7114
lwrist -28.8954
lhand -16.15 -12.8576
lfingers 7.12502
lthumb 10.0554 16.8821
rfemur -23.5931 6.06137 31.0739
rtibia 35.3095
rfoot -23.0307 -30.336
rtoes 18.4461
lfemur -25.0056 6.37184 -11.1029
ltibia 39.0853
lfoot -31.8143 -1.06325
ltoes -7.15305
2578
root 13.8711 26.5721 48.233 363.827 -181.003 5.94212
lowerback 25.3664 -0.758329 -2.74086
upperback 12.4466 1.72654 3.8582
thorax -0.420568 1.89508 5.32162
lowerneck -33.2999 -10.5621 -7.76299
upperneck -17.6635 -4.69701 12.1019
head -0.0996082 1.15698 4.78835
rclavicle 8.94531e-015 -1.65985e-014
rhumerus 48.1792 14.2404 -60.0972
rradius 95.2907
rwrist 8.57146
rhand -18.7165 -13.346
rfingers 7.12502
rthumb 7.57883 -43.1903
lclavicle 8.94531e-015 -1.65985e-014
lhumerus 29.8283 -12.4094 76.4774
lradius 29.6707
lwrist -27.8954
lhand -15.9516 -12.3923
lfingers 7.12502
lthumb 10.2468 17.3382
rfemur -23.2336 6.22993 30.979
rtibia 35.1848
rfoot -23.0526 -30.1526
rtoes 18.8835
lfemur -24.7838 6.63278 -11.1877
ltibia 39.3196
lfoot -31.8831 -1.0889
ltoes -6.90283
2579
root 13.8488 26.5858 48.1622 363.741 -180.726 5.69801
lowerback 25.1412 -0.881819 -2.60017
upperback 12.3655 1.56309 3.82226
thorax -0.387267 1.80913 5.24264
lowerneck -33.922 -10.3939 -7.59262
upperneck -16.4664 -4.80903 11.6335
head 0.314093 1.00272 4.5923
rclavicle -7.95139e-015 -1.47101e-014
rhumerus 49.8074 13.0138 -59.992
rradius 96.9519
rwrist 9.11707
rhand -19.6698 -13.1621
rfingers 7.12502
rthumb 6.6586 -43.0374
lclavicle -7.95139e-015 -1.47101e-014
lhumerus 29.5331 -12.9618 76.6169
lradius 29.3873
lwrist -28.0104
lhand -16.1955 -11.3714
lfingers 7.12502
lthumb 10.0116 18.3705
rfemur -22.8599 6.01129 30.6627
rtibia 35.1299
rfoot -23.3011 -30.1397
rtoes 19.3657
lfemur -24.6466 6.33936 -11.4875
ltibia 39.7001
lfoot -32.0974 -1.10854
ltoes -5.99417
